PathFileType	4	(X/Y/Z)	C:/Users/opensim2020/Desktop/walking_exp_matlab/subject02_walking07_straight_02.trc																																																																																																																																																				
DataRate	CameraRate	NumFrames	NumMarkers	Units	OrigDataRate	OrigDataStartFrame	OrigNumFrames																																																																																																																																																
100	100	4	50	mm	100	1357	210																																																																																																																																																
Frame#	Time	LFHD			RFHD			LBHD			RBHD			C7			T10			CLAV			STRN			RBAK			LSHO			LUPA			LELB			LFRM			LWRA			LWRB			LFIN			RSHO			RUPA			RELB			RFRM			RWRA			RWRB			RFIN			LASI			RASI			LPSI			RPSI			LTHI			LKNE			LTIB			LANK			LHEE			LTOE			RTHI			RKNE			RTIB			RANK			RHEE			RTOE			*39			*40			*41			*42			*43			*44			*45			*46			*47			*48			*49		
		X1	Y1	Z1	X2	Y2	Z2	X3	Y3	Z3	X4	Y4	Z4	X5	Y5	Z5	X6	Y6	Z6	X7	Y7	Z7	X8	Y8	Z8	X9	Y9	Z9	X10	Y10	Z10	X11	Y11	Z11	X12	Y12	Z12	X13	Y13	Z13	X14	Y14	Z14	X15	Y15	Z15	X16	Y16	Z16	X17	Y17	Z17	X18	Y18	Z18	X19	Y19	Z19	X20	Y20	Z20	X21	Y21	Z21	X22	Y22	Z22	X23	Y23	Z23	X24	Y24	Z24	X25	Y25	Z25	X26	Y26	Z26	X27	Y27	Z27	X28	Y28	Z28	X29	Y29	Z29	X30	Y30	Z30	X31	Y31	Z31	X32	Y32	Z32	X33	Y33	Z33	X34	Y34	Z34	X35	Y35	Z35	X36	Y36	Z36	X37	Y37	Z37	X38	Y38	Z38	X39	Y39	Z39	X40	Y40	Z40	X41	Y41	Z41	X42	Y42	Z42	X43	Y43	Z43	X44	Y44	Z44	X45	Y45	Z45	X46	Y46	Z46	X47	Y47	Z47	X48	Y48	Z48	X49	Y49	Z49	X50	Y50	Z50
																																																																																																																																																							
27	0.26	-524.58563	1732.46533	902.58154	-536.31104	1716.83887	1045.71472	-652.33551	1654.63391	884.5426	-676.24994	1636.90234	1025.49426	-710.0011	1511.78015	957.00208	-753.14435	1235.42944	965.91223	-567.59174	1448.19238	954.8139	-510.15558	1279.87622	978.73883	-765.82544	1338.31311	1022.95093	-629.17584	1479.74744	780.29523	-662.89905	1279.34131	706.27039	-691.73462	1142.27917	704.63098	-714.82379	1014.52258	688.12231	-689.13403	876.14569	710.20062	-735.21771	892.8808	681.05487	-736.29755	824.9809	677.63763	-641.52026	1488.73621	1147.5481	-645.62115	1300.58276	1241.34631	-596.22754	1164.09558	1276.71301	-525.57037	1064.76318	1295.32434	-435.85355	965.73633	1274.74341	-474.90353	945.46478	1310.46033	-415.1387	905.84503	1312.93689	-493.3588	989.0813	863.64294	-535.04877	958.60083	1112.87695	-715.96857	1024.91504	908.83215	-736.41077	1018.44189	1024.10754	-489.54788	682.59698	804.24176	-479.4465	481.66144	842.99591	-508.23242	288.26694	843.03009	-485.58667	71.03944	886.07709	-523.62793	43.7123	935.96216	-328.22482	36.49741	890.08801	-686.46082	668.15662	1177.0271	-725.508	466.91235	1168.63464	-868.86597	346.35223	1156.63611	-992.37921	201.47047	1112.61072	-1034.27258	183.12274	1044.44263	-936.31177	45.52795	1131.12634	-634.79004	1797.50366	982.49982	NaN	NaN	NaN	NaN	NaN	NaN	NaN	NaN	NaN	NaN	NaN	NaN	NaN	NaN	NaN	NaN	NaN	NaN	NaN	NaN	NaN	NaN	NaN	NaN	NaN	NaN	NaN	NaN	NaN	NaN
28	0.27	-515.31592	1733.64136	901.04895	-527.01654	1718.19702	1044.026	-643.15015	1655.87109	883.24084	-667.04205	1638.23572	1024.19263	-700.6543	1512.67273	955.8064	-743.19299	1236.3894	964.76013	-557.94012	1449.60315	953.66846	-500.16504	1281.05652	977.46606	-755.92358	1339.31482	1022.02264	-619.72247	1481.31177	779.35931	-649.97107	1280.30151	704.80988	-675.95697	1142.45618	703.12439	-695.30945	1013.79236	687.13953	-666.84216	876.75983	710.63123	-712.71893	891.82959	680.41437	-711.98975	823.82788	677.56165	-632.22974	1490.12244	1146.13501	-637.2984	1301.57043	1239.06982	-589.9165	1164.276	1273.68689	-521.08655	1064.00171	1292.83813	-433.25339	963.00793	1272.17676	-472.72192	943.5744	1307.92981	-413.84329	902.34937	1309.97815	-483.84836	990.98804	860.97601	-524.2359	959.25909	1109.19031	-706.42664	1025.67639	907.81525	-726.18768	1019.50989	1023.27246	-480.03464	683.80603	802.96381	-475.14297	481.33768	841.69006	-507.42038	288.19656	843.11877	-485.6731	71.03682	886.09338	-523.80658	43.62744	935.68353	-328.09277	36.27991	890.40234	-670.49762	666.48566	1176.77917	-705.53839	465.50568	1170.48206	-850.21759	347.88681	1158.83704	-978.07452	207.98018	1114.03137	-1021.15283	192.59396	1045.96704	-928.52893	49.81984	1129.60229	-625.59076	1798.81396	980.85156	-2845.85303	1033.86438	3356.87378	NaN	NaN	NaN	NaN	NaN	NaN	NaN	NaN	NaN	NaN	NaN	NaN	NaN	NaN	NaN	NaN	NaN	NaN	NaN	NaN	NaN	NaN	NaN	NaN	NaN	NaN	NaN
29	0.28	-506.61478	1735.01392	899.14911	-517.66223	1719.63135	1042.56982	-634.16681	1656.93286	881.84485	-657.7627	1639.61584	1022.92981	-691.22717	1513.81384	954.66138	-733.42883	1237.56836	963.60797	-548.40698	1451.04504	952.69641	-490.44952	1282.60681	976.2608	-746.57001	1340.68115	1021.2533	-610.29419	1482.88	778.41736	-636.94183	1281.10352	703.59003	-660.10693	1142.61353	701.53137	-675.84912	1013.59161	686.04846	-642.78345	877.14838	711.29059	-689.78333	891.11084	679.59497	-687.00952	823.08997	677.26208	-623.05469	1491.51221	1144.91174	-629.0882	1302.69067	1237.44263	-583.79285	1164.62769	1270.9812	-516.83319	1062.93909	1290.1731	-430.73334	960.50311	1269.90723	-470.80246	941.69171	1305.39453	-412.82266	899.06616	1307.60364	-474.5224	992.40326	858.27283	-513.78046	960.04468	1105.72571	-696.32544	1026.13745	906.73462	-716.41663	1020.61401	1022.22931	-471.40915	684.93347	802.09149	-471.61099	481.23126	840.25293	-506.70239	288.33475	842.63275	-485.66086	71.0061	885.97382	-523.75726	43.7074	935.5575	-328.09857	36.1439	890.69812	-654.39349	664.8844	1176.60376	-685.14795	464.24323	1171.99792	-831.21796	349.64252	1160.82092	-962.78217	214.41811	1114.98315	-1006.59003	201.74228	1046.89758	-918.85455	55.04048	1129.91138	-616.48157	1800.151	979.27216	-2845.88232	1034.0448	3356.86133	NaN	NaN	NaN	NaN	NaN	NaN	NaN	NaN	NaN	NaN	NaN	NaN	NaN	NaN	NaN	NaN	NaN	NaN	NaN	NaN	NaN	NaN	NaN	NaN	NaN	NaN	NaN
30	0.29	-497.66745	1736.37268	897.48761	-508.5629	1721.29004	1041.00647	-625.13531	1658.14099	880.52167	-648.58258	1641.07654	1021.76837	-681.71582	1515.13782	953.44678	-723.82605	1238.89124	962.46124	-538.87329	1452.54114	951.75055	-480.89767	1284.04968	975.30865	-737.25439	1342.25366	1020.45935	-600.65759	1484.31592	777.57458	-623.987	1281.9917	702.4173	-644.55621	1143.18152	699.61871	-656.31653	1013.29492	684.81946	-620.54333	877.99371	711.52197	-666.06165	890.37427	679.39508	-661.57233	822.58032	677.03552	-613.93976	1492.78247	1143.71985	-621.06049	1303.70215	1235.95593	-577.70184	1164.92908	1268.34277	-512.68799	1062.21008	1288.05151	-428.68753	957.3606	1267.15723	-468.98541	939.84229	1303.00488	-412.04919	895.6134	1304.6853	-465.45313	993.57904	855.91351	-504.43625	960.71533	1103.4375	-687.01605	1026.93738	905.56317	-707.03107	1021.79315	1020.88177	-464.77499	685.28833	800.69678	-468.61447	481.38156	838.76825	-505.56006	288.77017	841.56842	-485.64301	70.9932	885.84875	-524.1344	43.78939	935.56866	-328.26788	36.16811	890.68347	-638.26526	663.74078	1176.56079	-664.53278	463.46796	1173.50195	-811.7312	351.71439	1162.0332	-946.80145	220.49442	1115.20642	-990.60822	209.40482	1046.75928	-906.66553	60.53678	1131.54968	-607.41431	1801.62854	977.86493	-2845.03394	1034.03186	3360.1582	NaN	NaN	NaN	NaN	NaN	NaN	NaN	NaN	NaN	NaN	NaN	NaN	NaN	NaN	NaN	NaN	NaN	NaN	NaN	NaN	NaN	NaN	NaN	NaN	NaN	NaN	NaN
